#!OML:ASF I:\Actors\actors\Patient Classification 1\Patient 1\Session 1\Subject1.ASF
:FULLY-SPECIFIED
:DEGREES
1928
root 0.757737 17.4289 8.93094 3.45829 -4.82605 -9.37881
lowerback -2.68615 1.92827 4.60788
upperback -9.2823 2.91268 3.58316
thorax -8.23022 1.25812 1.08399
lowerneck -9.7247 -2.6932 3.15245
upperneck 28.9085 -3.42906 -4.07389
head 10.7328 -1.72911 -2.42374
rclavicle 5.55355e-015 9.241e-014
rhumerus 7.09288 18.9104 -97.0832
rradius 62.3812
rwrist 64.9361
rhand -38.4301 -72.2247
rfingers 7.12502
rthumb -11.454 101.892
lclavicle 5.55355e-015 9.241e-014
lhumerus 7.60228 -16.522 85.1955
lradius 59.2777
lwrist 41.6585
lhand -24.346 -1.92791
lfingers 7.12502
lthumb 2.14323 28.0411
rfemur -2.89238 15.2544 26.1292
rtibia 10.7587
rfoot -14.3598 -17.6542
rtoes -3.41741
lfemur 9.31371 -34.0159 -13.1711
ltibia -1.47026
lfoot -16.2244 44.5753
ltoes 3.65153
1929
root 0.758464 17.4279 8.93422 3.43885 -5.02752 -9.31826
lowerback -2.74959 1.99835 4.50431
upperback -9.21885 2.99896 3.63973
thorax -8.12978 1.31308 1.19958
lowerneck -10.0013 -2.66287 3.07712
upperneck 29.0404 -3.39375 -4.01426
head 10.8426 -1.71273 -2.39617
rclavicle -2.96935e-015 2.73329e-015
rhumerus 7.04364 18.7072 -97.3208
rradius 62.4381
rwrist 65.1014
rhand -38.4876 -72.1893
rfingers 7.12502
rthumb -11.5095 101.853
lclavicle -2.96935e-015 2.73329e-015
lhumerus 7.56715 -16.1639 85.3647
lradius 59.2568
lwrist 41.8666
lhand -24.1056 -1.89574
lfingers 7.12502
lthumb 2.37533 28.0708
rfemur -2.96772 15.2935 26.0587
rtibia 10.9381
rfoot -14.3476 -17.531
rtoes -3.7597
lfemur 9.57887 -34.1963 -13.4444
ltibia -1.58869
lfoot -16.4151 44.9437
ltoes 3.98707
1930
root 0.760182 17.4273 8.93435 3.43913 -5.34625 -9.22061
lowerback -2.81765 2.11556 4.35808
upperback -9.16902 3.14796 3.69564
thorax -8.04405 1.40173 1.33604
lowerneck -10.2163 -2.69915 3.08146
upperneck 29.1364 -3.42989 -4.09645
head 10.918 -1.73815 -2.43916
rclavicle -1.53344e-014 1.01256e-015
rhumerus 7.46834 18.2689 -97.5534
rradius 61.4191
rwrist 65.3795
rhand -38.7125 -72.3862
rfingers 7.12502
rthumb -11.7264 102.038
lclavicle -1.53344e-014 1.01256e-015
lhumerus 7.5246 -15.885 85.5914
lradius 59.1865
lwrist 41.8032
lhand -24.1199 -2.07216
lfingers 7.12502
lthumb 2.36154 27.8945
rfemur -3.09665 15.363 25.917
rtibia 11.1248
rfoot -14.3703 -17.2839
rtoes -3.68724
lfemur 9.76762 -34.2019 -13.7045
ltibia -1.64692
lfoot -16.6606 45.2247
ltoes 4.33487
1931
root 0.764179 17.4263 8.93371 3.49672 -5.70838 -9.14189
lowerback -2.8766 2.27108 4.42209
upperback -9.21867 3.35217 3.64792
thorax -8.05766 1.49527 1.24453
lowerneck -10.2395 -2.72467 2.85677
upperneck 29.3136 -3.54251 -3.66812
head 11.0022 -1.76019 -2.26457
rclavicle -2.22887e-014 4.87644e-015
rhumerus 8.25538 17.3957 -97.9736
rradius 59.0794
rwrist 66.0855
rhand -38.9392 -72.7181
rfingers 7.12502
rthumb -11.9451 102.357
lclavicle -2.22887e-014 4.87644e-015
lhumerus 7.4049 -15.8236 85.7329
lradius 59.0241
lwrist 41.6068
lhand -24.2559 -2.12384
lfingers 7.12502
lthumb 2.23026 27.8442
rfemur -3.28362 15.4127 25.7703
rtibia 11.2853
rfoot -14.3885 -16.9926
rtoes -3.53642
lfemur 9.82714 -34.0849 -13.8648
ltibia -1.64344
lfoot -16.9022 45.4199
ltoes 4.50009
1932
root 0.77089 17.426 8.93593 3.54213 -6.10209 -9.03924
lowerback -2.9698 2.44646 4.59302
upperback -9.29547 3.57832 3.52111
thorax -8.06911 1.58783 1.01135
lowerneck -10.2903 -2.70696 2.84964
upperneck 29.6038 -3.59431 -3.40775
head 11.1292 -1.74932 -2.18472
rclavicle 5.75233e-015 -4.04403e-014
rhumerus 9.46888 16.0241 -98.565
rradius 55.3141
rwrist 67.3193
rhand -38.7831 -72.7566
rfingers 7.12502
rthumb -11.7945 102.405
lclavicle 5.75233e-015 -4.04403e-014
lhumerus 7.2937 -15.9352 85.7588
lradius 58.807
lwrist 41.5922
lhand -24.3273 -1.92811
lfingers 7.12502
lthumb 2.16124 28.0407
rfemur -3.40949 15.4042 25.582
rtibia 11.3488
rfoot -14.3326 -16.6226
rtoes -3.55604
lfemur 9.95774 -34.0406 -14.1349
ltibia -1.64644
lfoot -17.1493 45.7111
ltoes 4.77043
1933
root 0.776705 17.4266 8.93849 3.55291 -6.57628 -8.92511
lowerback -3.10173 2.6517 4.66609
upperback -9.33391 3.83884 3.42438
thorax -8.02057 1.70736 0.865512
lowerneck -10.4253 -2.71187 2.93577
upperneck 29.9604 -3.65995 -3.29775
head 11.2929 -1.75146 -2.18103
rclavicle -5.05037e-015 -1.89839e-014
rhumerus 11.0928 14.0274 -99.3388
rradius 50.3489
rwrist 68.6502
rhand -36.8761 -71.6924
rfingers 7.12502
rthumb -9.95511 101.437
lclavicle -5.05037e-015 -1.89839e-014
lhumerus 7.28285 -16.1334 85.7886
lradius 58.5169
lwrist 41.7808
lhand -24.2705 -1.80753
lfingers 7.12502
lthumb 2.21613 28.1607
rfemur -3.48288 15.4746 25.3974
rtibia 11.3881
rfoot -14.2333 -16.238
rtoes -3.70695
lfemur 10.1421 -33.9241 -14.4388
ltibia -1.65213
lfoot -17.3876 45.9937
ltoes 5.11788
1934
root 0.779057 17.4268 8.93782 3.58371 -7.04346 -8.85015
lowerback -3.10385 2.88183 4.74747
upperback -9.48147 4.14824 3.29968
thorax -8.16369 1.84468 0.6773
lowerneck -10.3794 -2.74918 2.74155
upperneck 30.3381 -3.85926 -2.67643
head 11.4465 -1.78134 -1.95356
rclavicle 3.50731e-014 -9.88954e-015
rhumerus 12.6738 10.9737 -100.588
rradius 44.7836
rwrist 69.9532
rhand -34.7067 -69.6169
rfingers 7.12502
rthumb -7.86171 99.4507
lclavicle 3.50731e-014 -9.88954e-015
lhumerus 7.15496 -16.4714 85.8811
lradius 58.2134
lwrist 42.0885
lhand -24.1785 -1.73993
lfingers 7.12502
lthumb 2.305 28.2274
rfemur -3.57699 15.6973 25.2787
rtibia 11.441
rfoot -14.1897 -15.939
rtoes -3.39665
lfemur 10.1551 -33.5918 -14.5422
ltibia -1.57158
lfoot -17.6438 46.0603
ltoes 5.37653
1935
root 0.780501 17.427 8.9366 3.61922 -7.36489 -8.78312
lowerback -2.76032 3.10778 4.83139
upperback -9.87052 4.49268 3.12395
thorax -8.77172 1.98405 0.408928
lowerneck -10.1564 -2.85971 2.70898
upperneck 30.7508 -4.12931 -2.29234
head 11.5673 -1.85382 -1.84524
rclavicle 4.16702e-014 5.88403e-014
rhumerus 13.8559 6.70829 -102.247
rradius 39.401
rwrist 71.9977
rhand -35.6852 -67.9417
rfingers 7.12502
rthumb -8.80603 97.7379
lclavicle 4.16702e-014 5.88403e-014
lhumerus 6.62481 -16.9518 86.1865
lradius 58.0325
lwrist 42.4766
lhand -24.1088 -1.53558
lfingers 7.12502
lthumb 2.37224 28.431
rfemur -3.62612 15.8832 25.1733
rtibia 11.403
rfoot -14.1697 -15.719
rtoes -2.98984
lfemur 10.1021 -33.3161 -14.6014
ltibia -1.45985
lfoot -17.9723 46.0626
ltoes 5.72206
1936
root 0.782733 17.428 8.93646 3.63344 -7.54572 -8.7628
lowerback -2.53498 3.30801 5.05637
upperback -10.09 4.78141 2.87621
thorax -9.10511 2.08603 -0.00557946
lowerneck -10.1387 -2.9515 2.53031
upperneck 30.982 -4.46558 -1.51675
head 11.6766 -1.92505 -1.57506
rclavicle 1.10822e-014 -4.55217e-014
rhumerus 16.5848 9.72901 -99.7095
rradius 34.5288
rwrist 64.8934
rhand -36.0384 -68.0632
rfingers 7.12502
rthumb -9.14689 97.8449
lclavicle 1.10822e-014 -4.55217e-014
lhumerus 6.39763 -17.5159 86.3115
lradius 57.9698
lwrist 42.8068
lhand -24.1948 -1.45137
lfingers 7.12502
lthumb 2.28922 28.5161
rfemur -3.61788 15.9451 25.1382
rtibia 11.3391
rfoot -14.1051 -15.5934
rtoes -3.25784
lfemur 10.1377 -33.2027 -14.6642
ltibia -1.4422
lfoot -18.0694 46.1285
ltoes 5.75519
1937
root 0.784349 17.4295 8.93728 3.6491 -7.58749 -8.8389
lowerback -2.46412 3.41211 5.13639
upperback -10.1077 4.92639 2.81597
thorax -9.15079 2.14667 -0.124354
lowerneck -10.1962 -3.02708 2.48012
upperneck 30.8001 -4.6867 -1.11166
head 11.6269 -1.98267 -1.44163
rclavicle -5.61567e-015 -1.2921e-014
rhumerus 16.3384 10.496 -98.9032
rradius 34.8171
rwrist 61.4612
rhand -35.0642 -67.0296
rfingers 7.12502
rthumb -8.20676 96.8503
lclavicle -5.61567e-015 -1.2921e-014
lhumerus 6.4785 -17.8087 86.4733
lradius 57.9999
lwrist 42.7994
lhand -24.4315 -1.66898
lfingers 7.12502
lthumb 2.06062 28.3008
rfemur -3.59331 15.9669 25.2329
rtibia 11.2985
rfoot -14.0194 -15.5883
rtoes -3.5283
lfemur 10.1713 -33.1694 -14.5964
ltibia -1.47403
lfoot -17.97 46.1675
ltoes 5.51865
1938
root 0.784629 17.4313 8.94063 3.68467 -7.41592 -8.99305
lowerback -2.65895 3.35308 5.18703
upperback -9.91969 4.82523 2.88
thorax -8.83049 2.10621 -0.0640505
lowerneck -10.4038 -3.05266 2.56221
upperneck 30.4183 -4.74367 -1.0992
head 11.5159 -2.00378 -1.45493
rclavicle -3.33958e-014 -1.70955e-014
rhumerus 15.9338 12.1046 -97.9228
rradius 37.2754
rwrist 58.6829
rhand -35.0763 -67.347
rfingers 7.12502
rthumb -8.2184 97.1671
lclavicle -3.33958e-014 -1.70955e-014
lhumerus 6.82624 -17.6934 86.5383
lradius 58.1296
lwrist 42.4397
lhand -24.5627 -1.99728
lfingers 7.12502
lthumb 1.93393 27.9737
rfemur -3.53651 15.9632 25.4304
rtibia 11.2032
rfoot -13.9533 -15.7519
rtoes -3.52982
lfemur 10.0877 -33.1747 -14.3498
ltibia -1.47744
lfoot -17.7767 46.0694
ltoes 5.27921
